<?xml version="1.0" encoding="utf-8"?>
<!-- Svg Vector Icons : http://www.onlinewebfonts.com/icon -->
<!DOCTYPE svg PUBLIC "-//W3C//DTD SVG 1.1//EN" "http://www.w3.org/Graphics/SVG/1.1/DTD/svg11.dtd">
<svg version="1.1" xmlns="http://www.w3.org/2000/svg" xmlns:xlink="http://www.w3.org/1999/xlink" x="0px" y="0px" viewBox="0 0 256 256" enable-background="new 0 0 256 256" xml:space="preserve">
<metadata> Svg Vector Icons : http://www.onlinewebfonts.com/icon </metadata>
<g><g><g><path fill="#000000" d="M10,128v126.6h92.8h92.8v-33.8v-33.8h-8.4h-8.4v25.3v25.3h-75.9H26.9V128V18.3h50.9h50.9l-0.1,25.3l-0.2,25.3H162h33.6v-8.3v-8.3l-25.1-25.5L145.4,1.4H77.7H10V128z M160.8,41.1l10.8,11h-13h-13V38.8V25.4l2.3,2.4C149.1,29.1,154.9,35.1,160.8,41.1z"/><path fill="#000000" d="M211.8,69.5c-1.1,0.3-2.7,0.9-3.5,1.3c-0.8,0.4-22.9,22.1-49,48.1l-47.5,47.3l-9.2,27.6c-5.1,15.2-9.1,27.7-9.1,27.8c0.1,0.1,12.6-4,27.8-9.1l27.6-9.2l47.1-47.1c52.6-52.5,50-49.6,49.9-56.8c-0.1-2.5-0.4-4.7-1-6.1c-0.6-1.4-4.4-5.6-10.7-12c-7.6-7.6-10.3-10.1-12.4-11C218.8,69.2,214.7,68.8,211.8,69.5z M222.4,93.4l6.4,6.4l-4.4,4.4l-4.3,4.3l-6.8-6.4l-6.8-6.4l4.4-4.4c2.4-2.4,4.5-4.4,4.6-4.4C215.8,86.9,218.8,89.8,222.4,93.4z M177.7,150.9c-16.7,16.7-30.6,30.3-30.9,30.3c-0.6,0-12.9-12.2-12.9-12.9c0-0.3,13.7-14,30.5-30.6l30.4-30.2l6.6,6.5l6.6,6.5L177.7,150.9z M128.3,187l4.1,4.2l-5.9,2c-3.2,1.1-6,1.8-6.2,1.7c-0.2-0.3,3.4-12,3.7-12C124.2,182.8,126.1,184.7,128.3,187z"/><path fill="#000000" d="M43.8,111.1v8.4h50.6H145v-8.4v-8.4H94.4H43.8V111.1z"/><path fill="#000000" d="M43.8,144.9v8.4h33.8h33.8v-8.4v-8.4H77.5H43.8V144.9z"/><path fill="#000000" d="M43.8,178.6v8.4h25.3h25.3v-8.4v-8.4H69.1H43.8V178.6z"/><path fill="#000000" d="M43.8,212.4v8.4h16.9h16.9v-8.4v-8.4H60.6H43.8V212.4z"/></g></g></g>
</svg>